<?xml version="1.0" encoding="iso-8859-1"?>
<!-- Generator: Adobe Illustrator 19.0.0, SVG Export Plug-In . SVG Version: 6.00 Build 0)  -->
<svg version="1.1" id="Capa_1" xmlns="http://www.w3.org/2000/svg" xmlns:xlink="http://www.w3.org/1999/xlink" x="0px" y="0px"
	 viewBox="0 0 512.001 512.001" style="enable-background:new 0 0 30 30;" xml:space="preserve">
<path style="fill:#F0EDEE;" d="M309.847,0C198.699,0,108.272,90.426,108.272,201.575c0,45.06,15.218,89.042,42.947,124.383
	l-18.272,50.248c-2.166,5.957,3.388,12.117,9.533,10.578l59.539-14.885c32.244,20.458,69.447,31.252,107.827,31.252
	c111.148,0,201.575-90.426,201.575-201.575S420.996,0,309.847,0z"/>
<path style="fill:#E0DADD;" d="M342.099,387.024c-111.327,0-201.575-90.248-201.575-201.575c0-72.45,38.23-135.961,95.609-171.492
	C161.338,43.445,108.272,116.43,108.272,201.575c0,45.06,15.218,89.042,42.947,124.383l-18.272,50.248
	c-2.166,5.957,3.388,12.117,9.533,10.578l59.539-14.885c32.244,20.458,69.447,31.252,107.827,31.252
	c38.604,0,74.702-10.916,105.385-29.812C392.558,382.17,367.897,387.024,342.099,387.024z"/>
<path style="fill:#FDE261;" d="M430.792,169.323h-241.89c-4.453,0-8.063,3.61-8.063,8.063V322.52c0,4.453,3.61,8.063,8.063,8.063
	h241.89c4.453,0,8.063-3.61,8.063-8.063V177.386C438.855,172.933,435.245,169.323,430.792,169.323z"/>
<path style="fill:#FFEFD0;" d="M309.847,104.819c-57.798,0-104.819,47.021-104.819,104.819s47.021,104.819,104.819,104.819
	s104.819-47.021,104.819-104.819S367.644,104.819,309.847,104.819z"/>
<path style="fill:#FFE8B8;" d="M342.099,306.394c-57.798,0-104.819-47.021-104.819-104.819c0-43.171,26.237-80.326,63.601-96.368
	c-53.615,4.565-95.853,49.655-95.853,104.431c0,57.798,47.021,104.819,104.819,104.819c14.626,0,28.56-3.016,41.218-8.451
	C348.108,306.258,345.12,306.394,342.099,306.394z"/>
<path style="fill:#FDEA89;" d="M309.847,48.378c-71.135,0-129.008,57.872-129.008,129.008v64.504c0,3.424,2.163,6.475,5.394,7.608
	c0.875,0.307,1.776,0.456,2.667,0.456c2.404,0,4.738-1.076,6.298-3.027l60.021-75.025l58.417,36.511
	c2.487,1.554,5.62,1.636,8.182,0.215c2.564-1.421,4.154-4.121,4.154-7.052v-17.484l100.459,64.581
	c2.481,1.594,5.633,1.707,8.224,0.294c2.588-1.413,4.199-4.127,4.199-7.076v-64.504C438.855,106.25,380.982,48.378,309.847,48.378z"
	/>
<path style="fill:#FDE261;" d="M213.091,177.386c0-65.675,49.33-120.042,112.882-128.002c-5.284-0.662-10.665-1.006-16.126-1.006
	c-71.135,0-129.008,57.872-129.008,129.008v64.504c0,3.424,2.163,6.475,5.394,7.608c0.875,0.307,1.776,0.456,2.667,0.456
	c2.404,0,4.738-1.076,6.298-3.027l17.893-22.366V177.386z"/>
<g>
	<circle style="fill:#664756;" cx="269.032" cy="217.701" r="7.559"/>
	<circle style="fill:#664756;" cx="350.67" cy="217.701" r="7.559"/>
</g>
<path style="fill:#F0A1A2;" d="M325.973,274.142h-32.252c-4.453,0-8.063-3.61-8.063-8.063s3.61-8.063,8.063-8.063h32.252
	c4.453,0,8.063,3.61,8.063,8.063S330.426,274.142,325.973,274.142z"/>
<g>
	<path style="fill:#856C78;" d="M406.603,209.638c-4.453,0-8.063-3.61-8.063-8.063c0-40.014-32.553-72.567-72.567-72.567h-32.252
		c-40.014,0-72.567,32.553-72.567,72.567c0,4.453-3.61,8.063-8.063,8.063c-4.453,0-8.063-3.61-8.063-8.063
		c0-48.905,39.788-88.693,88.693-88.693h32.252c48.905,0,88.693,39.788,88.693,88.693
		C414.666,206.028,411.056,209.638,406.603,209.638z"/>
	<path style="fill:#856C78;" d="M277.595,290.268h-64.504c-4.453,0-8.063-3.61-8.063-8.063v-32.252c0-4.453,3.61-8.063,8.063-8.063
		c4.453,0,8.063,3.61,8.063,8.063v24.189h56.441c4.453,0,8.063,3.61,8.063,8.063S282.048,290.268,277.595,290.268z"/>
</g>
<path style="fill:#FEC143;" d="M430.792,193.512h-24.189c-4.453,0-8.063,3.61-8.063,8.063v48.378c0,4.453,3.61,8.063,8.063,8.063
	h24.189c8.891,0,16.126-7.235,16.126-16.126v-32.252C446.918,200.746,439.684,193.512,430.792,193.512z"/>
<path style="fill:#FEB114;" d="M430.792,193.512h-2.182c1.379,2.376,2.182,5.124,2.182,8.063v32.252
	c0,8.891-7.235,16.126-16.126,16.126H398.54c0,4.453,3.61,8.063,8.063,8.063h24.189c8.891,0,16.126-7.235,16.126-16.126v-32.252
	C446.918,200.746,439.684,193.512,430.792,193.512z"/>
<path style="fill:#FEC143;" d="M213.091,193.512h-24.189c-8.891,0-16.126,7.235-16.126,16.126v32.252
	c0,8.891,7.235,16.126,16.126,16.126h24.189c4.453,0,8.063-3.61,8.063-8.063v-48.378
	C221.154,197.122,217.544,193.512,213.091,193.512z"/>
<path style="fill:#FEB114;" d="M188.902,233.827v-32.252c0-2.939,0.803-5.687,2.182-8.063h-2.182
	c-8.891,0-16.126,7.235-16.126,16.126v32.252c0,8.891,7.235,16.126,16.126,16.126h24.189c4.453,0,8.063-3.61,8.063-8.063h-16.126
	C196.136,249.953,188.902,242.718,188.902,233.827z"/>
<path style="fill:#72DAE2;" d="M120.918,444.983c0.018-0.527,0.026-1.028,0.026-1.519s-0.008-0.991-0.026-1.519l14.344-13.869
	c1.33-1.286,1.615-3.312,0.689-4.914l-16.126-27.931c-0.925-1.602-2.822-2.368-4.6-1.861l-19.177,5.486
	c-0.861-0.53-1.742-1.039-2.639-1.524l-4.838-19.35c-0.449-1.794-2.061-3.053-3.911-3.053H52.41c-1.849,0-3.463,1.259-3.911,3.054
	l-4.838,19.35c-0.898,0.484-1.779,0.993-2.639,1.524l-19.177-5.486c-1.777-0.508-3.675,0.259-4.6,1.861L1.12,423.163
	c-0.925,1.603-0.641,3.628,0.689,4.914l14.344,13.87c-0.018,0.528-0.027,1.028-0.027,1.517s0.009,0.989,0.026,1.518l-14.344,13.87
	c-1.33,1.286-1.615,3.312-0.689,4.914l16.126,27.931c0.924,1.602,2.821,2.368,4.6,1.861l19.177-5.486
	c0.861,0.531,1.742,1.039,2.639,1.524l4.838,19.35c0.449,1.795,2.061,3.054,3.911,3.054h32.252c1.849,0,3.463-1.259,3.911-3.054
	l4.838-19.35c0.897-0.484,1.779-0.993,2.639-1.524l19.177,5.486c1.778,0.511,3.675-0.258,4.6-1.861l16.126-27.931
	c0.924-1.603,0.641-3.628-0.689-4.914L120.918,444.983z M92.146,443.465c0,13.02-10.592,23.61-23.61,23.61
	s-23.61-10.591-23.61-23.61s10.592-23.61,23.61-23.61S92.146,430.445,92.146,443.465z"/>
<g>
</g>
<g>
</g>
<g>
</g>
<g>
</g>
<g>
</g>
<g>
</g>
<g>
</g>
<g>
</g>
<g>
</g>
<g>
</g>
<g>
</g>
<g>
</g>
<g>
</g>
<g>
</g>
<g>
</g>
</svg>
