<?xml version="1.0" encoding="iso-8859-1"?>
<!-- Generator: Adobe Illustrator 19.0.0, SVG Export Plug-In . SVG Version: 6.00 Build 0)  -->
<svg xmlns="http://www.w3.org/2000/svg" xmlns:xlink="http://www.w3.org/1999/xlink" version="1.1" id="Layer_1" x="0px" y="0px" viewBox="0 0 511.563 511.563" style="enable-background:new 0 0 511.563 511.563;" xml:space="preserve" width="30" height="30">
<g>
	<g>
		<path style="fill:#F46262;" d="M406.927,306v-48.5v-30V7.5h-370v307c0,22.091,17.909,40,40,40h378.5    C428.641,354.5,406.927,332.786,406.927,306z"/>
		<path style="fill:#E4EDFB;" d="M455.427,354.5L455.427,354.5c-26.786,0-48.5-21.714-48.5-48.5v-78.5h97V306    C503.927,332.786,482.212,354.5,455.427,354.5z"/>
		<path style="fill:#E4EDFB;" d="M142.307,417.37l-77.17,76.84c-6.57,6.58-15.19,9.87-23.81,9.87s-17.24-3.29-23.82-9.87    c-13.16-13.15-13.16-34.48,0-47.63l74.94-74.62C104.347,391.45,121.667,407.28,142.307,417.37z"/>
		<path style="fill:#EF4848;" d="M344.927,309.5c0-82.71-67.29-150-150-150s-150,67.29-150,150c0,11.441,1.293,22.585,3.731,33.299    c7.237,7.23,17.231,11.701,28.269,11.701h261.101C342.506,340.288,344.927,325.172,344.927,309.5z"/>
		<path style="fill:#BCC8D9;" d="M142.307,417.37l-22.2,22.11c-19.71-11.4-36.61-27.14-49.36-45.92l21.7-21.6    C104.347,391.45,121.667,407.28,142.307,417.37z"/>
		<circle style="fill:#E4EDFB;" cx="194.927" cy="309.5" r="120"/>
		<circle style="fill:#92D8FF;" cx="194.927" cy="309.5" r="80"/>
		<path style="fill:#BCC8D9;" d="M436.927,336V227.5h-30V306c0,26.786,21.714,48.5,48.5,48.5h0    C445.226,354.5,436.927,346.201,436.927,336z"/>
		<path style="fill:#4ABEF0;" d="M194.927,259.5c39.053,0,71.551,27.99,78.575,65c0.922-4.861,1.425-9.871,1.425-15    c0-44.183-35.817-80-80-80c-44.183,0-80,35.817-80,80c0,5.129,0.502,10.139,1.425,15C123.375,287.49,155.873,259.5,194.927,259.5z    "/>
	</g>
	<g>
		<rect x="66.927" y="30" style="fill:#FFFFFF;" width="15" height="15"/>
		<rect x="359.927" y="30" style="fill:#FFFFFF;" width="15" height="15"/>
		<path style="fill:#FFFFFF;" d="M374.927,315.5h-15v-15h15V315.5z M374.927,285.5h-15v-15h15V285.5z M374.927,255.5h-15v-15h15    V255.5z M374.927,225.5h-15v-15h15V225.5z"/>
		<path style="fill:#FFFFFF;" d="M105.29,158c-24.187,0-43.864-19.677-43.864-43.863h15c0,15.915,12.948,28.863,28.864,28.863    c15.915,0,28.863-12.948,28.863-28.863V55.5h15v58.637C149.154,138.323,129.477,158,105.29,158z"/>
		<path style="fill:#FFFFFF;" d="M215.063,158c-27.57,0-50-22.43-50-50v-6.363c0-27.57,22.43-50,50-50s50,22.43,50,50V108    C265.063,135.57,242.633,158,215.063,158z M215.063,66.637c-19.299,0-35,15.701-35,35V108c0,19.299,15.701,35,35,35    s35-15.701,35-35v-6.363C250.063,82.338,234.362,66.637,215.063,66.637z"/>
		<path style="fill:#FFFFFF;" d="M328.699,113h-49.273V53h49.273c16.542,0,30,13.458,30,30S345.241,113,328.699,113z M294.427,98    h34.273c8.271,0,15-6.729,15-15s-6.729-15-15-15h-34.273V98z"/>
		<path style="fill:#FFFFFF;" d="M328.699,158h-49.273V98h49.273c16.542,0,30,13.458,30,30S345.241,158,328.699,158z M294.427,143    h34.273c8.271,0,15-6.729,15-15s-6.729-15-15-15h-34.273V143z"/>
		<rect x="219.927" y="276" style="fill:#FFFFFF;" width="15" height="15"/>
		<rect x="232.927" y="305" style="fill:#FFFFFF;" width="15" height="15"/>
	</g>
	<g>
		<path d="M282.427,309.5c0-48.248-39.252-87.5-87.5-87.5c-2.595,0-5.213,0.115-7.783,0.342l1.318,14.941    c2.132-0.188,4.308-0.283,6.464-0.283c39.977,0,72.5,32.523,72.5,72.5s-32.523,72.5-72.5,72.5    c-13.506,0-26.682-3.737-38.102-10.807l-7.896,12.754c13.794,8.539,29.7,13.053,45.998,13.053    C243.174,397,282.427,357.748,282.427,309.5z"/>
		<path d="M175.121,239.736l-4.088-14.432c-37.451,10.608-63.606,45.23-63.606,84.195c0,24.49,10.368,48.023,28.444,64.566    L145.997,363c-14.979-13.708-23.571-33.208-23.571-53.5C122.427,277.213,144.095,248.525,175.121,239.736z"/>
		<polygon points="44.427,15 231.927,15 231.927,0 29.427,0 29.427,192.5 44.427,192.5   "/>
		<path d="M414.427,220V0h-167.5v15h152.5v205v7.5V306c0,16.178,6.904,30.768,17.91,41H316.796    c3.657-11.861,5.631-24.454,5.631-37.5c0-32.079-11.957-62.736-33.667-86.324l-11.036,10.158    c19.155,20.811,29.704,47.86,29.704,76.166c0,62.032-50.467,112.5-112.5,112.5s-112.5-50.468-112.5-112.5S132.894,197,194.927,197    c26.59,0,52.392,9.447,72.654,26.603l9.692-11.447C254.306,192.709,225.061,182,194.927,182c-70.304,0-127.5,57.196-127.5,127.5    c0,12.955,1.948,25.463,5.557,37.252c-16.066-1.953-28.557-15.667-28.557-32.252v-107h-15v107c0,26.191,21.309,47.5,47.5,47.5    h1.817c1.341,2.956,2.795,5.85,4.35,8.681l-70.895,70.593c-7.779,7.778-12.063,18.121-12.063,29.122s4.284,21.343,12.063,29.122    c8.031,8.03,18.579,12.044,29.126,12.044c10.542,0,21.085-4.012,29.106-12.033l73.494-73.187    C159.552,433.19,176.802,437,194.927,437c51.599,0,96.136-30.811,116.183-75h136.817h7.5l7.292-0.001l0.017-0.491    c27.435-3.594,48.691-27.107,48.691-55.508v-86H414.427z M59.836,488.911c-10.209,10.212-26.821,10.21-37.031,0    c-4.946-4.945-7.669-11.521-7.669-18.515s2.724-13.57,7.658-18.505l68.456-68.164c10.301,14.382,23.428,26.428,38.619,35.444    L59.836,488.911z M496.427,306c0,22.306-17.909,40.496-40.101,40.977l-1.228,0.015c-22.456-0.178-40.671-18.495-40.671-40.992v-71    h82V306z"/>
	</g>
</g>
</svg>
